<svg aria-hidden="true" style="position: absolute; width: 0; height: 0; overflow: hidden;" version="1.1" xmlns="http://www.w3.org/2000/svg" xmlns:xlink="http://www.w3.org/1999/xlink">
<defs>
<symbol id="icon-heart-o" viewBox="0 0 28 28">
<path d="M26 9.312c0-4.391-2.969-5.313-5.469-5.313-2.328 0-4.953 2.516-5.766 3.484-0.375 0.453-1.156 0.453-1.531 0-0.812-0.969-3.437-3.484-5.766-3.484-2.5 0-5.469 0.922-5.469 5.313 0 2.859 2.891 5.516 2.922 5.547l9.078 8.75 9.063-8.734c0.047-0.047 2.938-2.703 2.938-5.563zM28 9.312c0 3.75-3.437 6.891-3.578 7.031l-9.734 9.375c-0.187 0.187-0.438 0.281-0.688 0.281s-0.5-0.094-0.688-0.281l-9.75-9.406c-0.125-0.109-3.563-3.25-3.563-7 0-4.578 2.797-7.313 7.469-7.313 2.734 0 5.297 2.156 6.531 3.375 1.234-1.219 3.797-3.375 6.531-3.375 4.672 0 7.469 2.734 7.469 7.313z"></path>
</symbol>
<symbol id="icon-heart" viewBox="0 0 28 28">
<path d="M14 26c-0.25 0-0.5-0.094-0.688-0.281l-9.75-9.406c-0.125-0.109-3.563-3.25-3.563-7 0-4.578 2.797-7.313 7.469-7.313 2.734 0 5.297 2.156 6.531 3.375 1.234-1.219 3.797-3.375 6.531-3.375 4.672 0 7.469 2.734 7.469 7.313 0 3.75-3.437 6.891-3.578 7.031l-9.734 9.375c-0.187 0.187-0.438 0.281-0.688 0.281z"></path>
</symbol>
<symbol id="icon-soundcloud" viewBox="0 0 32 32">
<path d="M27.874 16.069c-0.565 0-1.105 0.11-1.596 0.308-0.328-3.574-3.447-6.377-7.25-6.377-0.931 0-1.834 0.176-2.635 0.474-0.311 0.116-0.393 0.235-0.393 0.466v12.585c0 0.243 0.195 0.445 0.441 0.469 0.011 0.001 11.36 0.007 11.434 0.007 2.278 0 4.125-1.776 4.125-3.965s-1.848-3.966-4.126-3.966zM12.5 24h1l0.5-7.007-0.5-6.993h-1l-0.5 6.993zM9.5 24h-1l-0.5-5.086 0.5-4.914h1l0.5 5zM4.5 24h1l0.5-4-0.5-4h-1l-0.5 4zM0.5 22h1l0.5-2-0.5-2h-1l-0.5 2z"></path>
</symbol>
</defs>
</svg>
